<svg version="1.2" xmlns="http://www.w3.org/2000/svg" viewBox="0 0 95 63" width="95" height="63">
	<style>
		tspan { white-space:pre } 
		.s0 { fill: #000000 } 
		.t1 { font-size: 5px;fill: #000000;font-family: "Arbeit  Regular" } 
	</style>
	<path class="s0" d="m45.48 8.03l-7.72 8.27-1.76 4.33-3.25 1.09-3.12-2.71-4.74 3.25-5.83 7.59-1.22-0.67-5.83 3.52-6.5 9.21v5.03c0.87-0.85 1.71-1.84 2.04-3.27 0.79 1.2 1.41 2.69 2.87 3.63l-1.42 0.31c0.3 0.19 0.6 0.47 0.86 0.78q0.75-0.96 1.59-1.48l-1.27-0.46c1.07-0.98 2.23-2.08 2.64-3.84 0.8 1.21 1.42 2.7 2.87 3.63l-1.42 0.31c0.6 0.36 1.12 1.07 1.46 1.64 0.66-0.73 1.24-1.58 1.5-2.71 0.79 1.21 1.41 2.7 2.87 3.63l-1.42 0.32c0.79 0.47 1.45 1.55 1.74 2.14l-1.85-0.4 1.85 2.25c0.38-0.48 0.81-0.92 1.39-1.6l-1.72 0.75c0.22-0.89 0.73-1.73 1.34-2.56l-1.49 0.19q1.01-1.56 2.18-2.29l-1.28-0.46c1.07-0.98 2.24-2.08 2.65-3.84 0.79 1.21 1.42 2.7 2.87 3.63l-1.42 0.31c0.46 0.28 0.87 0.76 1.2 1.23 1.04-0.96 2.13-2.03 2.52-3.73 0.8 1.21 1.42 2.7 2.88 3.63l-1.43 0.31c0.32 0.19 0.62 0.49 0.88 0.8 1.39-0.94 2-2.38 2.78-3.56 0.39 1.7 1.49 2.77 2.53 3.73 0.32-0.46 0.73-0.94 1.2-1.22l-1.43-0.31c1.46-0.94 2.08-2.43 2.87-3.63 0.41 1.76 1.58 2.85 2.65 3.84l-1.27 0.45q1.17 0.73 2.17 2.3l-1.49-0.2c0.62 0.83 1.12 1.68 1.35 2.56l-1.72-0.75c0.58 0.68 1.01 1.13 1.39 1.6l1.85-2.25-1.85 0.4c0.29-0.58 0.95-1.67 1.74-2.14l-1.42-0.31c1.46-0.94 2.08-2.43 2.87-3.63 0.26 1.13 0.84 1.98 1.5 2.7 0.34-0.57 0.86-1.28 1.46-1.63l-1.42-0.31c1.45-0.94 2.07-2.43 2.87-3.63 0.41 1.76 1.57 2.85 2.64 3.84l-1.27 0.45q0.84 0.52 1.59 1.48c0.26-0.31 0.55-0.59 0.86-0.78l-1.43-0.31c1.46-0.93 2.08-2.42 2.88-3.63 0.41 1.76 1.57 2.85 2.64 3.84l-1.27 0.46q0.82 0.51 1.55 1.42 0.76-0.97 1.62-1.5l-1.28-0.45c1.07-0.99 2.24-2.08 2.64-3.84 0.8 1.2 1.42 2.69 2.88 3.63l-1.43 0.31c0.63 0.38 1.18 1.14 1.52 1.73 0.86-0.83 1.66-1.81 1.98-3.21 0.8 1.21 1.42 2.7 2.88 3.63l-1.43 0.31c0.63 0.38 1.18 1.14 1.52 1.73q0.39-0.79 0.97-1.55l-1.49 0.19q1.01-1.57 2.18-2.29l-1.28-0.46c1.07-0.98 2.24-2.08 2.64-3.84 0.8 1.21 1.42 2.7 2.88 3.63l-1.43 0.31c0.6 0.36 1.12 1.06 1.47 1.64 1.04-0.96 2.14-2.04 2.53-3.74 0.62 0.93 1.13 2.04 2 2.92 0.31-0.6 0.94-1.6 1.7-2.05l-1.43-0.31c1.46-0.93 2.08-2.42 2.88-3.63 0.21 0.93 0.64 1.68 1.16 2.32 0.75-0.78 1.42-1.69 1.71-2.94 0.51 0.78 0.95 1.66 1.58 2.44 0.91-0.88 1.43-2.01 2.06-2.96v-0.04h0.04v0.04c0.28 1.19 0.91 2.07 1.62 2.83v-3.51l-9.47-12.06-3.66-0.28-2.57-2.98-2.98-1.76-1.63-3.66-1.89-0.4-5.56-5.56-5.42 5.02-1.49-0.82-0.95-2.71-2.85-1.76zm-0.62 3.5l-3.95 6.76-1.69 7.73 2.6 3.55-2.49 3.64 3.64 3.16-4.12 4.89 0.48-2.97-6.23 5.18 4.79-8.06-1.34-1.72-5.65 6.42 1.72-5.56-3.25 2.97 1.43-4.5-0.67-0.96 1.92-2.77-2.11-2.5-5.65 4.8-0.1 2.58-7.57 7.47 1.63-5.84-2.2-1.53-5.66 4.4 2.4-4.02 5.46-2.68 1.34 0.48 7-8.63 2.68-2.2 3.6 3.17 4.28-1.91 2.44-5.35zm1.49 4.72c0.04 0 0.06 0.04 0.08 0.05 0.54 0.68 4.88 4.61 4.88 4.61l0.27-3.25 5.01 5.28 5.02-2.84-1.36 4.2 0.82 1.22-2.44 5.28 7.85 6.37-0.4 4.34 4.06 1.81-5.66 0.78-5.18-5.46-5.63-0.04-1.58 4.09 0.13-5.39 4.35-0.27-5.27-3.13-1.62 1.49 0.95-5.83 5.28 4.34-5.28-7.86-3.66 2.44 1.35-5.83-1.49-2.44-2.03 1.63c0 0 0.98-5.67 1.54-5.61zm44.11 30.52l-0.26 0.1q0.13 0.08 0.26 0.18zm-3.68 0.26l-0.14 0.04c0.04 0 0.05 0.04 0.07 0.04 0.04-0.04 0.04-0.05 0.07-0.08zm-81.27 0.68v0.74q0.32-0.28 0.67-0.5zm8.66 0.58l0.66 0.81q0.28-0.27 0.56-0.55zm72.38 0.51l0.26 0.32 0.18-0.22zm-60.27 0.18q0.26 0.41 0.42 0.72l-1.85-0.4 1.06 1.29q0.66-0.79 1.4-1.24zm-15.5 0.04l-0.42 0.05q0.09 0.15 0.18 0.29 0.11-0.17 0.24-0.34zm-1.87 0.34l0.94 1.14q0.21-0.42 0.48-0.83zm72.09 0.07l-1.74 0.37q0.36 0.36 0.81 0.65l-1.43 0.31q0.4 0.25 0.74 0.64zm-32.71 0.06l-1.23 0.26q0.29 0.28 0.57 0.54zm-33.09 0.06l0.37 0.46q0.15-0.12 0.31-0.21zm15.89 0.36q0.34 0.44 0.57 0.85 0.32-0.35 0.68-0.57zm5.09 0.25l-1.03 0.37q0.74 0.46 1.41 1.25l1.06-1.29-1.85 0.4q0.15-0.31 0.41-0.73zm15.51 0.04q0.12 0.17 0.24 0.34 0.08-0.14 0.17-0.29zm10.46 0.27l1.41 1.72q0.41-0.37 0.83-0.64l-1.27-0.46q0.17-0.15 0.36-0.33zm-8.59 0.07l-1.42 0.3q0.27 0.42 0.48 0.84zm-38.94 0.09l0.1 0.13q0.05-0.06 0.1-0.1zm58.46 0.04l1.37 1.66q0.65-0.76 1.37-1.21l-1.06-0.38q0.1 0.18 0.17 0.33zm-25.82 0.06l-0.68 0.25q0.16 0.09 0.31 0.21zm-17.25 0.04l0.86 1.05q0.22-0.37 0.53-0.75zm-18.87 0.07l-0.77 0.34 0.23 0.29q0.25-0.28 0.54-0.63zm47.59 0.36l-0.44 0.06q0.07 0.09 0.14 0.2l-0.88-0.11-0.3 0.04c0-0.04 0.04-0.05 0.04-0.07l-0.35-0.04q0.51 0.67 0.88 1.37 0.38-0.74 0.91-1.45zm-33.46 0.46l0.65 0.85q0.21-0.35 0.45-0.7zm-15.94 0.05l0.49 0.65q0.2-0.25 0.44-0.52zm71.21 0.07l-0.81 0.11q0.19 0.26 0.33 0.5zm-32.71 0.06l-0.19 0.04 0.1 0.09zm-41.96 0.06l-0.37 0.16v0.27q0.17-0.2 0.37-0.43zm26.56 0.06l-1.24 0.26 0.51 0.62zm18.87 0.08q0.29 0.34 0.54 0.62l0.23-0.29zm27.22 0.5l0.75 0.92 0.5-0.65zm-15.94 0.29l0.18 0.25q0.08-0.1 0.16-0.2zm-25.41 0.04l-1.09 0.15q0.24 0.34 0.44 0.69zm15.94 0.05l-0.93 0.13q0.23 0.27 0.44 0.52zm13.98 0.07l1.55 1.88c0.39-0.49 0.82-0.94 1.42-1.64l-1.72 0.75q0.08-0.34 0.23-0.68zm-7.98 0.05l-0.95 0.42q0.07 0.2 0.13 0.41l-0.54-0.23-0.36 0.16q0.05-0.15 0.08-0.29l-0.91-0.4c0.5 0.6 0.9 1.01 1.24 1.42 0.37-0.43 0.77-0.86 1.31-1.49zm14.41 0l0.21 0.28q0.08-0.12 0.15-0.23zm-43.07 0.09l0.51 0.66 0.43-0.53zm44.67 0.14l-1.31 0.17 0.64 0.83q0.3-0.51 0.67-1zm-48.13 0.05l-0.35 0.15 0.1 0.13q0.12-0.14 0.25-0.28zm-7.98 0.24l0.72 0.94q0.25-0.44 0.5-0.77zm44.67 0.14l-0.42 0.05 0.2 0.26q0.1-0.16 0.22-0.31zm-37.76 0.53q0.06 0.08 0.12 0.15 0.05-0.05 0.09-0.11zm-15.94 0.05q0.11 0.14 0.22 0.27 0.09-0.09 0.18-0.18zm22 0.04l-0.57 0.07 0.26 0.34zm3.46 0.19q0.13 0.15 0.24 0.28l0.11-0.13zm7.97 0.24l-1.22 0.17q0.26 0.34 0.5 0.77zm-21.82 0.11l-1.22 0.49 0.31 0.41q0.47-0.53 0.91-0.9zm57.36 0.04l0.21 0.29q0.1-0.11 0.21-0.23zm-73.3 0.04l-0.16 0.06v0.08q0.08-0.07 0.16-0.14zm69.84 0.17l-0.32 0.13 0.09 0.13q0.11-0.13 0.23-0.26zm-7.98 0.24l0.43 0.56q0.14-0.25 0.28-0.46zm-31.01 0.1l-0.22 0.04q0.05 0.06 0.1 0.11 0.06-0.08 0.12-0.15zm15.94 0.04l-0.4 0.09q0.09 0.09 0.18 0.18 0.11-0.13 0.22-0.27zm11.52 0.09l-0.45 0.2q0.09 0.09 0.17 0.19 0.16-0.18 0.33-0.38zm10.32 0.06l-0.08 0.04q0.19 0.23 0.39 0.45 0.15-0.17 0.31-0.35zm-15.38 0.41l-0.08 0.04v0.04c0.04-0.04 0.04-0.04 0.07-0.06zm-18.07 0.04q0.44 0.37 0.9 0.9l0.31-0.41zm-21.17 0.05q0.18 0.23 0.38 0.45 0.12-0.16 0.25-0.31zm50.18 0.11l-1.25 0.5 0.32 0.43q0.48-0.55 0.93-0.93zm-12.1 0.27l-0.39 0.16q0.22 0.23 0.45 0.49 0.21-0.24 0.41-0.46zm-14.97 0.8l-0.63 0.14q0.13 0.15 0.25 0.3 0.2-0.22 0.38-0.44zm25.4 0.58q0.05 0.05 0.07 0.08c0-0.04 0.04-0.04 0.04-0.06z"/>
	<text id="Created by Artdabana@Design" style="transform: matrix(1,0,0,1,-2,100.5)" >
		<tspan x="0" y="0" class="t1">Created by Artdabana@Design
</tspan>
	</text>
	<text id="from Noun Project" style="transform: matrix(1,0,0,1,-2,105.5)" >
		<tspan x="0" y="0" class="t1">from Noun Project
</tspan>
	</text>
</svg>